<svg version="1.1" xmlns="http://www.w3.org/2000/svg" viewBox="0 0 864 178.5">
  <!-- svg-source:excalidraw -->
  <defs>
    <style>
      @font-face {
        font-family: "Virgil";
        src: url("https://excalidraw.com/FG_Virgil.woff2");
      }
      @font-face {
        font-family: "Cascadia";
        src: url("https://excalidraw.com/Cascadia.woff2");
      }
    </style>
  </defs>
  <rect x="0" y="0" width="864" height="178.5" fill="#ffffff"></rect><g transform="translate(10 10) rotate(0 422 21.5)"><text x="0" y="35" font-family="Cascadia, Segoe UI Emoji" font-size="36px" fill="#364fc7" text-anchor="start" style="white-space: pre;" direction="ltr">.div { color: blue, font-size: 14rem }  </text></g><g><g transform="translate(65 108.5) rotate(0 0 -26)"><path d="M0 0 C0 -8.666666666666666, 0 -43.333333333333336, 0 -52 M0 0 C0 -8.666666666666666, 0 -43.333333333333336, 0 -52" stroke="#364fc7" stroke-width="2" fill="none"></path></g><g transform="translate(65 108.5) rotate(0 0 -26)"><path d="M8.892523726467386 -27.56799185956638 C6.014676908399604 -35.474811008856946, 3.1368300903318227 -43.381630158147516, 0 -52 M8.892523726467386 -27.56799185956638 C5.895190305569418 -35.803097752060225, 2.8978568846714508 -44.03820364455407, 0 -52" stroke="#364fc7" stroke-width="2" fill="none"></path></g><g transform="translate(65 108.5) rotate(0 0 -26)"><path d="M-8.892523726467386 -27.56799185956638 C-6.014676908399604 -35.474811008856946, -3.1368300903318227 -43.381630158147516, 0 -52 M-8.892523726467386 -27.56799185956638 C-5.895190305569418 -35.803097752060225, -2.8978568846714508 -44.03820364455407, 0 -52" stroke="#364fc7" stroke-width="2" fill="none"></path></g></g><g><g transform="translate(201 104.5) rotate(0 0 -26)"><path d="M0 0 C0 -8.666666666666666, 0 -43.333333333333336, 0 -52 M0 0 C0 -8.666666666666666, 0 -43.333333333333336, 0 -52" stroke="#364fc7" stroke-width="2" fill="none"></path></g><g transform="translate(201 104.5) rotate(0 0 -26)"><path d="M8.892523726467386 -27.56799185956638 C7.057599023586218 -32.60940604713187, 5.22267432070505 -37.65082023469736, 0 -52 M8.892523726467386 -27.56799185956638 C6.9327013424285635 -32.95255960585477, 4.972878958389741 -38.33712735214316, 0 -52" stroke="#364fc7" stroke-width="2" fill="none"></path></g><g transform="translate(201 104.5) rotate(0 0 -26)"><path d="M-8.892523726467386 -27.56799185956638 C-7.057599023586218 -32.60940604713187, -5.22267432070505 -37.65082023469736, 0 -52 M-8.892523726467386 -27.56799185956638 C-6.9327013424285635 -32.95255960585477, -4.972878958389741 -38.33712735214316, 0 -52" stroke="#364fc7" stroke-width="2" fill="none"></path></g></g><g><g transform="translate(346 104.5) rotate(0 0 -26)"><path d="M0 0 C0 -8.666666666666666, 0 -43.333333333333336, 0 -52 M0 0 C0 -8.666666666666666, 0 -43.333333333333336, 0 -52" stroke="#364fc7" stroke-width="2" fill="none"></path></g><g transform="translate(346 104.5) rotate(0 0 -26)"><path d="M8.892523726467386 -27.56799185956638 C6.364561712915613 -34.51351040903892, 3.8365996993638385 -41.45902895851146, 0 -52 M8.892523726467386 -27.56799185956638 C5.521617701287742 -36.82948004685099, 2.1507116761080978 -46.0909682341356, 0 -52" stroke="#364fc7" stroke-width="2" fill="none"></path></g><g transform="translate(346 104.5) rotate(0 0 -26)"><path d="M-8.892523726467386 -27.56799185956638 C-6.364561712915613 -34.51351040903892, -3.8365996993638385 -41.45902895851146, 0 -52 M-8.892523726467386 -27.56799185956638 C-5.521617701287742 -36.82948004685099, -2.1507116761080978 -46.0909682341356, 0 -52" stroke="#364fc7" stroke-width="2" fill="none"></path></g></g><g><g transform="translate(538 105.5) rotate(0 0 -26)"><path d="M0 0 C0 -8.666666666666666, 0 -43.333333333333336, 0 -52 M0 0 C0 -8.666666666666666, 0 -43.333333333333336, 0 -52" stroke="#364fc7" stroke-width="2" fill="none"></path></g><g transform="translate(538 105.5) rotate(0 0 -26)"><path d="M8.892523726467386 -27.56799185956638 C6.386591666962918 -34.452983607742325, 3.8806596074584494 -41.33797535591827, 0 -52 M8.892523726467386 -27.56799185956638 C7.111702407893555 -32.46075822043139, 5.330881089319723 -37.3535245812964, 0 -52" stroke="#364fc7" stroke-width="2" fill="none"></path></g><g transform="translate(538 105.5) rotate(0 0 -26)"><path d="M-8.892523726467386 -27.56799185956638 C-6.386591666962918 -34.452983607742325, -3.8806596074584494 -41.33797535591827, 0 -52 M-8.892523726467386 -27.56799185956638 C-7.111702407893555 -32.46075822043139, -5.330881089319723 -37.3535245812964, 0 -52" stroke="#364fc7" stroke-width="2" fill="none"></path></g></g><g><g transform="translate(717 106.5) rotate(0 0 -26)"><path d="M0 0 C0 -8.666666666666666, 0 -43.333333333333336, 0 -52 M0 0 C0 -8.666666666666666, 0 -43.333333333333336, 0 -52" stroke="#364fc7" stroke-width="2" fill="none"></path></g><g transform="translate(717 106.5) rotate(0 0 -26)"><path d="M8.892523726467386 -27.56799185956638 C5.574924267993147 -36.683021458519235, 2.2573248095189067 -45.798051057472094, 0 -52 M8.892523726467386 -27.56799185956638 C6.869377112249894 -33.12654149837501, 4.846230498032401 -38.68509113718365, 0 -52" stroke="#364fc7" stroke-width="2" fill="none"></path></g><g transform="translate(717 106.5) rotate(0 0 -26)"><path d="M-8.892523726467386 -27.56799185956638 C-5.574924267993147 -36.683021458519235, -2.2573248095189067 -45.798051057472094, 0 -52 M-8.892523726467386 -27.56799185956638 C-6.869377112249894 -33.12654149837501, -4.846230498032401 -38.68509113718365, 0 -52" stroke="#364fc7" stroke-width="2" fill="none"></path></g></g><g transform="translate(30 117) rotate(0 38 25)"><text x="38" y="18" font-family="Virgil, Segoe UI Emoji" font-size="16px" fill="#364fc7" text-anchor="middle" style="white-space: pre;" direction="ltr">Seçici</text><text x="38" y="43" font-family="Virgil, Segoe UI Emoji" font-size="16px" fill="#364fc7" text-anchor="middle" style="white-space: pre;" direction="ltr">(Selector)</text></g><g transform="translate(162.5 117.5) rotate(0 39.5 25)"><text x="39.5" y="18" font-family="Virgil, Segoe UI Emoji" font-size="16px" fill="#364fc7" text-anchor="middle" style="white-space: pre;" direction="ltr">Özellik</text><text x="39.5" y="43" font-family="Virgil, Segoe UI Emoji" font-size="16px" fill="#364fc7" text-anchor="middle" style="white-space: pre;" direction="ltr">(Property)</text></g><g transform="translate(497.5 115.5) rotate(0 39.5 25)"><text x="39.5" y="18" font-family="Virgil, Segoe UI Emoji" font-size="16px" fill="#364fc7" text-anchor="middle" style="white-space: pre;" direction="ltr">Özellik</text><text x="39.5" y="43" font-family="Virgil, Segoe UI Emoji" font-size="16px" fill="#364fc7" text-anchor="middle" style="white-space: pre;" direction="ltr">(Property)</text></g><g transform="translate(697.5 114.5) rotate(0 25.5 25)"><text x="25.5" y="18" font-family="Virgil, Segoe UI Emoji" font-size="16px" fill="#364fc7" text-anchor="middle" style="white-space: pre;" direction="ltr">Değer</text><text x="25.5" y="43" font-family="Virgil, Segoe UI Emoji" font-size="16px" fill="#364fc7" text-anchor="middle" style="white-space: pre;" direction="ltr">(Value)</text></g><g transform="translate(329.5 118.5) rotate(0 25.5 25)"><text x="25.5" y="18" font-family="Virgil, Segoe UI Emoji" font-size="16px" fill="#364fc7" text-anchor="middle" style="white-space: pre;" direction="ltr">Değer</text><text x="25.5" y="43" font-family="Virgil, Segoe UI Emoji" font-size="16px" fill="#364fc7" text-anchor="middle" style="white-space: pre;" direction="ltr">(Value)</text></g></svg>